<svg xmlns="http://www.w3.org/2000/svg" width="542" height="532" viewBox="0 0 542 532">
  <defs>
    <style>
      .cls-1 {
        fill-rule: evenodd;
      }
    </style>
  </defs>
  <path id="Color_Fill_1" data-name="Color Fill 1" class="cls-1" d="M297,520V434c67.636-9.232,112.479-50.545,134-106,24.657-63.538-2.9-142.764-40-173-18.533-15.1-37.93-29.379-63-38C216.31,78.592,123.156,168.111,115,260H30C27.954,121.148,180.589-15.525,339,31c43.864,12.883,75.922,33,107,58,56.822,45.7,104.519,164.829,67,264C480.129,439.886,408.847,513.312,297,520ZM29,297h86V434H260v86L29,519V297Z"/>
</svg>
