<?xml version="1.0" encoding="UTF-8"?><svg id="Layer_2" xmlns="http://www.w3.org/2000/svg" width="189" height="77"  viewBox="0 0 188.5 76.71"><defs><style>.cls-1{fill:#fff;}</style></defs><g id="Layer_1-2"><path class="cls-1" d="m122.1,70.81c-1.49,0-2.85-.27-3.8-1.03-1.14-.9-1.57-2.12-1.57-4.05v-5.35h-2.8v-3.04h2.8v-3.96l3.8-.54v4.51h4.56v3.04h-4.56v4.26c0,.79,0,1.63.43,2.23.38.49.98.76,1.98.76.87,0,1.71-.33,1.85-.38l1,2.74c-.19.11-1.55.82-3.69.82h0Z"/><path class="cls-1" d="m136.22,47.97c-1.49,0-2.85-.27-3.8-1.03-1.14-.9-1.57-2.12-1.57-4.05v-5.35h-2.8v-3.04h2.8v-3.96l3.8-.54v4.51h4.56v3.04h-4.56v4.26c0,.79,0,1.63.43,2.23.38.49.98.76,1.98.76.87,0,1.71-.33,1.85-.38l1,2.74c-.19.11-1.55.82-3.69.82h0Z"/><path class="cls-1" d="m82.12,24.73V6.32h4.02v15.02h9.18v3.39h-13.2Z"/><path class="cls-1" d="m105.73,24.73l-.08-1.41c-.46.52-1.79,1.74-4.21,1.74s-4.62-1.28-4.62-4.13c0-1.22.43-2.09,1.06-2.72,1.39-1.39,3.18-1.66,4.89-1.66h2.69v-.27c0-1.66-1.11-2.2-2.61-2.2-1.98,0-3.48,1.36-3.69,1.58l-1.79-2.2c.33-.35,2.12-2.28,5.7-2.28,2.09,0,3.56.49,4.56,1.52,1.39,1.39,1.49,3.04,1.49,5.3v6.73h-3.4Zm-.27-5.76h-1.96c-1.28,0-3.04.14-3.04,1.82,0,1.06.81,1.6,1.93,1.6,1.03,0,1.74-.3,2.25-.76.54-.49.82-1.19.82-1.98v-.68h0Z"/><path class="cls-1" d="m127.08,24.73h-3.69l-2.8-8.23-2.8,8.23h-3.67l-4.48-13.06h3.96l2.61,8.36,2.88-8.36h3.04l2.93,8.36,2.66-8.36h3.8l-4.45,13.06Z"/><path class="cls-1" d="m90.64,48c-6.35,0-9.69-4.26-9.69-9.61s3.42-9.67,9.75-9.67c4.83,0,7.01,2.69,7.39,3.18l-2.42,2.34c-.14-.16-1.79-2.15-4.83-2.15-3.88,0-5.76,2.96-5.76,6.25,0,3.58,2.25,6.27,5.76,6.27,3.15,0,5-1.87,5.3-2.17l2.25,2.42c-.08.11-2.66,3.15-7.74,3.15h0Z"/><path class="cls-1" d="m102.95,42.16c0,1.17.82,2.91,3.34,2.91,2.23,0,3.5-1.3,3.8-1.6l2.04,1.96c-1.25,1.41-3.15,2.55-5.97,2.55-5,0-7.09-3.37-7.09-6.92s2.14-7.03,7-7.03c1.19,0,2.99.22,4.45,1.68,1.79,1.79,1.98,4.05,1.98,6.46h-9.56,0Zm2.99-5.38c-2.42,0-2.96,2.28-2.96,2.82h5.84c0-.6-.41-2.82-2.88-2.82Z"/><path class="cls-1" d="m123.12,47.56v-7.39c0-1-.05-1.93-.76-2.44-.35-.3-.87-.49-1.63-.49-.65,0-1.44.22-1.98.76-.79.79-.79,2.06-.79,3.39v6.16h-3.8v-13.06h3.58s.05,1.55.05,1.52c.08-.11,1.55-2.01,4.32-2.01,1.33,0,2.53.35,3.56,1.39,1.09,1.09,1.25,2.66,1.25,4.13v8.04h-3.8Z"/><path class="cls-1" d="m149.45,37.65c-.9,0-2.01.19-2.8.87-1.28,1.11-1.36,2.44-1.36,3.77v5.27h-3.8v-13.06h3.58l.05,2.25c.92-1.55,2.85-2.74,4.7-2.74.16,0,.35,0,.52.03v3.67c-.22-.03-.52-.05-.9-.05h0Z"/><path class="cls-1" d="m155.02,42.16c0,1.17.81,2.91,3.34,2.91,2.23,0,3.5-1.3,3.8-1.6l2.04,1.96c-1.25,1.41-3.15,2.55-5.97,2.55-5,0-7.09-3.37-7.09-6.92s2.14-7.03,7-7.03c1.2,0,2.99.22,4.45,1.68,1.79,1.79,1.98,4.05,1.98,6.46h-9.56Zm2.99-5.38c-2.42,0-2.96,2.28-2.96,2.82h5.84c0-.6-.41-2.82-2.88-2.82Z"/><path class="cls-1" d="m171.88,48.02c-3.8,0-5.59-1.6-6.11-2.06l1.71-2.36c.3.24,1.85,1.58,4.4,1.58,1.9,0,2.39-.82,2.39-1.33,0-2.39-8.17-.05-8.17-5.54,0-2.58,2.33-4.29,5.81-4.29,3.96,0,5.46,1.74,5.87,2.17l-1.82,2.06c-.22-.22-1.52-1.41-3.86-1.41-1.44,0-2.25.49-2.25,1.33,0,2.25,8.2-.11,8.2,5.38,0,2.91-2.72,4.48-6.16,4.48h0Z"/><path class="cls-1" d="m94.28,70.4l-8.31-12.06v12.06h-3.86v-18.41h4.05l8.25,12v-12h3.86v18.41h-3.99Z"/><path class="cls-1" d="m103.57,65c0,1.17.81,2.91,3.34,2.91,2.23,0,3.5-1.3,3.8-1.6l2.04,1.95c-1.25,1.41-3.15,2.55-5.97,2.55-5,0-7.09-3.37-7.09-6.92s2.15-7.03,7.01-7.03c1.19,0,2.99.22,4.45,1.68,1.79,1.79,1.98,4.05,1.98,6.46h-9.56Zm2.99-5.38c-2.42,0-2.96,2.28-2.96,2.82h5.84c0-.6-.41-2.82-2.88-2.82Z"/><path class="cls-1" d="m144,70.4h-3.69l-2.8-8.23-2.8,8.23h-3.67l-4.48-13.06h3.96l2.61,8.36,2.88-8.36h3.04l2.93,8.36,2.66-8.36h3.8l-4.45,13.06Z"/><path class="cls-1" d="m155.62,70.81c-5.16,0-7.3-3.67-7.3-6.98s2.15-6.98,7.3-6.98,7.3,3.69,7.3,6.98-2.15,6.98-7.3,6.98Zm0-10.92c-1.06,0-1.9.38-2.44,1.03-.6.71-.95,1.71-.95,2.88s.35,2.2.98,2.91c.57.65,1.36,1.03,2.42,1.03s1.87-.38,2.44-1.03c.62-.71.95-1.71.95-2.91,0-2.25-1.17-3.91-3.39-3.91Z"/><path class="cls-1" d="m172.46,60.49c-.9,0-2.01.19-2.8.87-1.28,1.11-1.36,2.44-1.36,3.77v5.27h-3.8v-13.06h3.58l.05,2.25c.92-1.55,2.85-2.74,4.7-2.74.16,0,.35,0,.52.03v3.67c-.22-.03-.52-.05-.9-.05Z"/><path class="cls-1" d="m183.83,70.4l-5.13-5.97v5.97h-3.8v-18.41h3.8v10.89l5.13-5.54h4.51l-5.97,6.19,6.14,6.87h-4.67Z"/><path class="cls-1" d="m16.66,30.54c-2.57-.4-4.9-1.6-6.72-3.42-2.29-2.29-3.56-5.34-3.56-8.59s1.26-6.29,3.56-8.59c2.29-2.29,5.34-3.56,8.59-3.56s6.29,1.26,8.59,3.56c1.96,1.96,3.18,4.56,3.47,7.32l.04.36h6.42c0-.07-.03-.44-.03-.44-.32-4.44-2.24-8.62-5.37-11.76C28.12,1.93,23.47,0,18.52,0S8.92,1.93,5.42,5.43c-7.22,7.22-7.22,18.98,0,26.21,2.98,2.98,6.93,4.86,11.12,5.31l.48.05v-6.4s-.36-.06-.36-.06h0Z"/><path class="cls-1" d="m37.04,20.34h-6.43v10.26h-10.88v6.4h17.3v-16.66Z"/><path class="cls-1" d="m60.14,30.54c2.57-.4,4.9-1.6,6.72-3.42,2.29-2.29,3.56-5.34,3.56-8.59s-1.26-6.29-3.56-8.59c-2.29-2.29-5.34-3.56-8.59-3.56s-6.29,1.26-8.59,3.56c-1.96,1.96-3.18,4.56-3.47,7.32l-.04.36h-6.42c0-.07.03-.44.03-.44.32-4.44,2.24-8.62,5.37-11.76,3.5-3.5,8.16-5.43,13.11-5.43s9.6,1.93,13.1,5.43c7.22,7.22,7.22,18.98,0,26.21-2.98,2.98-6.93,4.86-11.12,5.31l-.48.05v-6.4s.36-.06.36-.06h0Z"/><path class="cls-1" d="m39.76,20.34h6.43v10.26h10.88v6.4h-17.3v-16.66Z"/><path class="cls-1" d="m16.66,46.17c-2.57.4-4.9,1.6-6.72,3.42-2.29,2.29-3.56,5.34-3.56,8.59s1.26,6.29,3.56,8.59c2.29,2.29,5.34,3.56,8.59,3.56s6.29-1.26,8.59-3.56c1.96-1.96,3.18-4.56,3.47-7.32l.04-.36h6.42c0,.07-.03.44-.03.44-.32,4.44-2.24,8.62-5.37,11.76-3.5,3.5-8.16,5.43-13.11,5.43s-9.6-1.93-13.1-5.43c-7.22-7.22-7.22-18.98,0-26.21,2.98-2.98,6.93-4.86,11.12-5.31l.48-.05v6.4s-.36.06-.36.06h0Z"/><path class="cls-1" d="m37.04,56.37h-6.43v-10.26h-10.88v-6.4h17.3v16.66Z"/><path class="cls-1" d="m60.14,46.17c2.57.4,4.9,1.6,6.72,3.42,2.29,2.29,3.56,5.34,3.56,8.59s-1.26,6.29-3.56,8.59c-2.29,2.29-5.34,3.56-8.59,3.56s-6.29-1.26-8.59-3.56c-1.96-1.96-3.18-4.56-3.47-7.32l-.04-.36h-6.42c0,.07.03.44.03.44.32,4.44,2.24,8.62,5.37,11.76,3.5,3.5,8.16,5.43,13.11,5.43s9.6-1.93,13.1-5.43c7.22-7.22,7.22-18.98,0-26.21-2.98-2.98-6.93-4.86-11.12-5.31l-.48-.05v6.4s.36.06.36.06h0Z"/><path class="cls-1" d="m39.76,56.37h6.43v-10.26h10.88v-6.4h-17.3v16.66Z"/></g></svg>