<svg width="189" height="77" viewBox="0 0 189 77" fill="none" xmlns="http://www.w3.org/2000/svg">
    <path d="M122.126 70.9462C120.633 70.9462 119.275 70.6745 118.324 69.9146C117.183 69.0174 116.749 67.7961 116.749 65.8686V60.5192H113.952V57.478H116.749V53.514L120.55 52.9706V57.478H125.111V60.5192H120.55V64.7817C120.55 65.5686 120.55 66.4106 120.985 67.0078C121.364 67.4961 121.961 67.7678 122.967 67.7678C123.836 67.7678 124.678 67.4423 124.813 67.3885L125.817 70.1311C125.628 70.2401 124.269 70.9462 122.125 70.9462H122.126Z"
          fill="#7A7D84"/>
    <path d="M136.246 48.1108C134.753 48.1108 133.394 47.8391 132.443 47.0791C131.303 46.1819 130.868 44.9606 130.868 43.0331V37.6837H128.072V34.6425H130.868V30.6786L134.669 30.1352V34.6425H139.23V37.6837H134.669V41.9463C134.669 42.7332 134.669 43.5752 135.104 44.1724C135.483 44.6606 136.08 44.9324 137.086 44.9324C137.955 44.9324 138.797 44.6068 138.932 44.553L139.937 47.2957C139.747 47.4046 138.388 48.1108 136.244 48.1108H136.246Z"
          fill="#7A7D84"/>
    <path d="M82.1414 24.8652V6.45508H86.1604V21.4715H95.3379V24.8652H82.1414Z" fill="#7A7D84"/>
    <path d="M105.754 24.8651L105.673 23.4528C105.212 23.9693 103.881 25.1906 101.465 25.1906C99.049 25.1906 96.8498 23.9141 96.8498 21.0639C96.8498 19.8426 97.2842 18.9737 97.9084 18.3482C99.2938 16.9628 101.085 16.6924 102.796 16.6924H105.485V16.4207C105.485 14.7649 104.373 14.2215 102.878 14.2215C100.896 14.2215 99.4027 15.5787 99.1862 15.7966L97.3945 13.5974C97.72 13.245 99.5117 11.3161 103.096 11.3161C105.187 11.3161 106.653 11.8044 107.657 12.8361C109.043 14.2215 109.151 15.8773 109.151 18.1317V24.8651H105.754ZM105.482 19.1082H103.527C102.25 19.1082 100.486 19.244 100.486 20.9281C100.486 21.9866 101.299 22.5301 102.413 22.5301C103.445 22.5301 104.151 22.2315 104.666 21.7701C105.209 21.2818 105.481 20.5757 105.481 19.7874V19.1082H105.482Z"
          fill="#7A7D84"/>
    <path d="M127.105 24.8652H123.411L120.615 16.6374L117.818 24.8652H114.153L109.672 11.8045H113.636L116.243 20.1682L119.122 11.8045H122.163L125.095 20.1682L127.756 11.8045H131.557L127.105 24.8652Z"
          fill="#7A7D84"/>
    <path d="M90.6584 48.1363C84.3042 48.1363 80.9644 43.8738 80.9644 38.5244C80.9644 33.175 84.3863 28.8573 90.7122 28.8573C95.5451 28.8573 97.7187 31.5448 98.0994 32.0344L95.6823 34.3695C95.5464 34.2067 93.8906 32.2241 90.8494 32.2241C86.9662 32.2241 85.0925 35.1832 85.0925 38.4693C85.0925 42.0539 87.3468 44.7414 90.8494 44.7414C93.9996 44.7414 95.8464 42.8677 96.145 42.5691L98.3993 44.9862C98.3186 45.0951 95.7374 48.1363 90.6597 48.1363H90.6584Z"
          fill="#7A7D84"/>
    <path d="M102.975 42.2987C102.975 43.4663 103.79 45.2041 106.315 45.2041C108.541 45.2041 109.818 43.9007 110.116 43.6021L112.153 45.5579C110.903 46.9702 109.004 48.1095 106.179 48.1095C101.184 48.1095 99.092 44.7427 99.092 41.185C99.092 37.6273 101.237 34.1516 106.097 34.1516C107.292 34.1516 109.083 34.3695 110.549 35.8356C112.342 37.6273 112.532 39.8816 112.532 42.2987H102.974H102.975ZM105.963 36.9225C103.546 36.9225 103.004 39.2037 103.004 39.7458H108.841C108.841 39.1486 108.435 36.9225 105.963 36.9225Z"
          fill="#7A7D84"/>
    <path d="M123.139 47.702V40.3161C123.139 39.3114 123.086 38.3886 122.379 37.8721C122.026 37.5735 121.51 37.3839 120.749 37.3839C120.098 37.3839 119.31 37.6018 118.766 38.1438C117.98 38.9307 117.98 40.2072 117.98 41.5375V47.7006H114.178V34.6399H117.763C117.763 34.6399 117.817 36.1881 117.817 36.1598C117.898 36.0509 119.365 34.1503 122.135 34.1503C123.465 34.1503 124.661 34.5027 125.692 35.5357C126.778 36.6225 126.942 38.1963 126.942 39.6624V47.6993H123.139V47.702Z"
          fill="#7A7D84"/>
    <path d="M149.467 37.7913C148.571 37.7913 147.457 37.981 146.67 38.6603C145.394 39.774 145.313 41.1043 145.313 42.4346V47.7019H141.512V34.6412H145.096L145.15 36.8955C146.073 35.3473 148.002 34.1529 149.847 34.1529C150.01 34.1529 150.201 34.1529 150.364 34.1798V37.8452C150.147 37.8183 149.847 37.7913 149.468 37.7913H149.467Z"
          fill="#7A7D84"/>
    <path d="M155.042 42.2987C155.042 43.4663 155.857 45.2041 158.382 45.2041C160.608 45.2041 161.884 43.9007 162.184 43.6021L164.221 45.5579C162.971 46.9702 161.071 48.1095 158.247 48.1095C153.25 48.1095 151.16 44.7427 151.16 41.185C151.16 37.6273 153.305 34.1516 158.165 34.1516C159.36 34.1516 161.153 34.3695 162.619 35.8356C164.41 37.6273 164.601 39.8816 164.601 42.2987H155.042ZM158.028 36.9225C155.612 36.9225 155.069 39.2037 155.069 39.7458H160.906C160.906 39.1486 160.499 36.9225 158.028 36.9225Z"
          fill="#7A7D84"/>
    <path d="M171.902 48.1632C168.101 48.1632 166.308 46.5613 165.793 46.0999L167.504 43.7379C167.803 43.9827 169.351 45.313 171.902 45.313C173.803 45.313 174.291 44.4979 174.291 43.9827C174.291 41.5939 166.119 43.9289 166.119 38.4437C166.119 35.8639 168.454 34.1529 171.929 34.1529C175.893 34.1529 177.388 35.8908 177.794 36.3252L175.974 38.3886C175.756 38.1707 174.453 36.9762 172.118 36.9762C170.678 36.9762 169.865 37.4645 169.865 38.3065C169.865 40.5595 178.066 38.1976 178.066 43.6828C178.066 46.5882 175.35 48.1632 171.901 48.1632H171.902Z"
          fill="#7A7D84"/>
    <path d="M94.3062 70.5386L85.9977 58.4826V70.5386H82.1414V52.1285H86.1873L94.4421 64.1306V52.1285H98.2984V70.5386H94.3062Z"
          fill="#7A7D84"/>
    <path d="M103.591 65.1355C103.591 66.303 104.406 68.0408 106.931 68.0408C109.157 68.0408 110.434 66.7375 110.734 66.4389L112.77 68.3933C111.521 69.8056 109.62 70.9462 106.797 70.9462C101.8 70.9462 99.7094 67.5795 99.7094 64.0218C99.7094 60.464 101.855 56.9897 106.715 56.9897C107.909 56.9897 109.702 57.2062 111.168 58.6737C112.96 60.4654 113.151 62.7197 113.151 65.1368H103.593L103.591 65.1355ZM106.577 59.7592C104.162 59.7592 103.618 62.0405 103.618 62.5825H109.456C109.456 61.9853 109.048 59.7592 106.577 59.7592Z"
          fill="#7A7D84"/>
    <path d="M144.019 70.5386H140.325L137.529 62.3108L134.733 70.5386H131.067L126.587 57.4779H130.551L133.157 65.8416L136.036 57.4779H139.077L142.009 65.8416L144.67 57.4779H148.471L144.019 70.5386Z"
          fill="#7A7D84"/>
    <path d="M155.639 70.9462C150.479 70.9462 148.335 67.2809 148.335 63.968C148.335 60.655 150.481 56.9897 155.639 56.9897C160.797 56.9897 162.943 60.6819 162.943 63.968C162.943 67.254 160.797 70.9462 155.639 70.9462ZM155.639 60.0309C154.579 60.0309 153.739 60.4116 153.195 61.0626C152.598 61.7687 152.244 62.7735 152.244 63.941C152.244 65.1086 152.598 66.1403 153.222 66.8464C153.792 67.4974 154.579 67.8781 155.639 67.8781C156.699 67.8781 157.513 67.4988 158.083 66.8464C158.707 66.1403 159.033 65.1355 159.033 63.941C159.033 61.6867 157.865 60.0309 155.639 60.0309Z"
          fill="#7A7D84"/>
    <path d="M172.481 60.6281C171.585 60.6281 170.471 60.8178 169.684 61.497C168.408 62.6108 168.326 63.9411 168.326 65.2713V70.5387H164.525V57.478H168.109L168.163 59.7323C169.086 58.1841 171.015 56.9897 172.861 56.9897C173.024 56.9897 173.215 56.9897 173.378 57.0166V60.6819C173.161 60.655 172.862 60.6281 172.481 60.6281Z"
          fill="#7A7D84"/>
    <path d="M183.848 70.5386L178.717 64.5651V70.5386H174.915V52.1285H178.717V63.0169L183.848 57.4779H188.355L182.382 63.6693L188.518 70.5386H183.848Z"
          fill="#7A7D84"/>
    <path d="M16.6764 30.68C14.1033 30.2846 11.7803 29.0834 9.95238 27.2568C7.65768 24.9621 6.3933 21.9128 6.3933 18.6685C6.3933 15.4241 7.65633 12.3748 9.95238 10.0801C12.2457 7.78544 15.2964 6.52241 18.5394 6.52241C21.7823 6.52241 24.833 7.78544 27.1277 10.0801C29.0861 12.0386 30.3048 14.64 30.5939 17.4041L30.6316 17.7605H37.049C37.049 17.6919 37.018 17.3247 37.018 17.3247C36.6979 12.8819 34.7798 8.70547 31.6445 5.56741C28.1419 2.06617 23.4879 0.138672 18.538 0.138672C13.5908 0.138672 8.93819 2.06482 5.43964 5.56472C-1.78477 12.7891 -1.78477 24.5451 5.43964 31.7709C8.41765 34.7475 12.3668 36.6347 16.5607 37.0839L17.0409 37.135L17.0382 30.7365L16.6778 30.6814L16.6764 30.68Z"
          fill="#00838A"/>
    <path d="M37.0611 20.4762H30.6356V30.7365H19.7566V37.135H37.0611V20.4762Z" fill="#00838A"/>
    <path d="M60.1642 30.68C62.7373 30.2846 65.0603 29.0834 66.8883 27.2568C69.183 24.9621 70.4473 21.9128 70.4473 18.6685C70.4473 15.4241 69.1843 12.3748 66.8883 10.0801C64.5949 7.78544 61.5443 6.52241 58.3013 6.52241C55.0583 6.52241 52.0077 7.78544 49.713 10.0801C47.7545 12.0386 46.5359 14.64 46.2467 17.4041L46.209 17.7605H39.7917C39.7917 17.6919 39.8226 17.3247 39.8226 17.3247C40.1427 12.8819 42.0608 8.70547 45.1962 5.56741C48.7001 2.06617 53.3527 0.138672 58.3026 0.138672C63.2498 0.138672 67.9024 2.06482 71.401 5.56472C78.6254 12.7891 78.6254 24.5451 71.401 31.7709C68.423 34.7475 64.4738 36.6347 60.2799 37.0839L59.7997 37.135L59.8024 30.7365L60.1629 30.6814L60.1642 30.68Z"
          fill="#425390"/>
    <path d="M39.7795 20.4762H46.2049V30.7365H57.0839V37.135H39.7809L39.7795 20.4762Z" fill="#425390"/>
    <path d="M16.6765 46.3067C14.1033 46.7022 11.7804 47.9033 9.95241 49.7299C7.6577 52.0246 6.39333 55.0739 6.39333 58.3183C6.39333 61.5626 7.65636 64.6132 9.95241 66.9066C12.2458 69.2013 15.2964 70.4643 18.5394 70.4643C21.7824 70.4643 24.833 69.2013 27.1277 66.9066C29.0861 64.9482 30.3048 62.3468 30.594 59.5826L30.6316 59.2262H37.049C37.049 59.2948 37.0181 59.662 37.0181 59.662C36.6979 64.1048 34.7799 68.2813 31.6445 71.4207C28.1432 74.9206 23.4893 76.8481 18.5394 76.8481C13.5922 76.8481 8.93956 74.9219 5.44102 71.422C-1.7834 64.1976 -1.7834 52.4416 5.44102 45.2159C8.41902 42.2392 12.3682 40.3521 16.5621 39.9028L17.0423 39.8517L17.0396 46.2502L16.6791 46.3054L16.6765 46.3067Z"
          fill="#C90061"/>
    <path d="M37.0611 56.5117H30.6357V46.2514H19.7567V39.8529H37.0611V56.5117Z" fill="#C90061"/>
    <path d="M60.1642 46.3067C62.7373 46.7022 65.0603 47.9033 66.8883 49.7299C69.183 52.0246 70.4473 55.0739 70.4473 58.3183C70.4473 61.5626 69.1843 64.6132 66.8883 66.9066C64.5949 69.2013 61.5443 70.4643 58.3013 70.4643C55.0583 70.4643 52.0077 69.2013 49.713 66.9066C47.7545 64.9482 46.5359 62.3468 46.2467 59.5826L46.209 59.2262H39.7917C39.7917 59.2948 39.8226 59.662 39.8226 59.662C40.1427 64.1048 42.0608 68.2813 45.1962 71.4207C48.6974 74.9206 53.3514 76.8481 58.3013 76.8481C63.2485 76.8481 67.9011 74.9219 71.3996 71.422C78.6241 64.1976 78.6241 52.4416 71.3996 45.2159C68.4216 42.2392 64.4725 40.3521 60.2785 39.9028L59.7983 39.8517L59.801 46.2502L60.1615 46.3054L60.1642 46.3067Z"
          fill="#E45E37"/>
    <path d="M39.7795 56.5117H46.2049V46.2514H57.0839V39.8529H39.7808L39.7795 56.5117Z" fill="#E45E37"/>
</svg>
