<svg width="221" height="93" viewBox="0 0 221 93" fill="none" xmlns="http://www.w3.org/2000/svg">
    <path d="M5.20044 90.0342C4.62231 90.0342 4.0813 89.9229 3.57739 89.7002C3.07349 89.4736 2.63208 89.1611 2.25317 88.7627C1.87427 88.3643 1.57739 87.8994 1.36255 87.3682C1.14771 86.833 1.04028 86.2568 1.04028 85.6396C1.04028 85.0225 1.14771 84.4502 1.36255 83.9229C1.57739 83.3916 1.87427 82.9268 2.25317 82.5283C2.63208 82.1299 3.07349 81.8193 3.57739 81.5967C4.0813 81.374 4.62231 81.2627 5.20044 81.2627C5.77466 81.2627 6.31372 81.374 6.81763 81.5967C7.32153 81.8193 7.76294 82.1299 8.14185 82.5283C8.52075 82.9268 8.81763 83.3916 9.03247 83.9229C9.24731 84.4502 9.35474 85.0225 9.35474 85.6396C9.35474 86.2568 9.24731 86.833 9.03247 87.3682C8.81763 87.8994 8.5188 88.3643 8.13599 88.7627C7.75708 89.1611 7.31567 89.4736 6.81177 89.7002C6.31177 89.9229 5.77466 90.0342 5.20044 90.0342ZM5.20044 89.3252C5.677 89.3252 6.12231 89.2314 6.53638 89.0439C6.95435 88.8564 7.32153 88.5947 7.63794 88.2588C7.95435 87.9229 8.20044 87.5322 8.37622 87.0869C8.55591 86.6377 8.64575 86.1553 8.64575 85.6396C8.64575 85.124 8.55591 84.6455 8.37622 84.2041C8.20044 83.7588 7.95435 83.3701 7.63794 83.0381C7.32153 82.7061 6.95435 82.4463 6.53638 82.2588C6.12231 82.0713 5.677 81.9775 5.20044 81.9775C4.71997 81.9775 4.27075 82.0713 3.85278 82.2588C3.43481 82.4424 3.06763 82.7021 2.75122 83.0381C2.43481 83.3701 2.18677 83.7588 2.00708 84.2041C1.8313 84.6455 1.74341 85.124 1.74341 85.6396C1.74341 86.1553 1.8313 86.6377 2.00708 87.0869C2.18677 87.5322 2.43481 87.9229 2.75122 88.2588C3.06763 88.5947 3.43481 88.8564 3.85278 89.0439C4.27075 89.2314 4.71997 89.3252 5.20044 89.3252ZM5.11841 88.2588C4.49341 88.2588 3.99536 88.0518 3.62427 87.6377C3.25708 87.2236 3.07349 86.6748 3.07349 85.9912V85.2939C3.07349 84.6182 3.25708 84.0713 3.62427 83.6533C3.99536 83.2354 4.49341 83.0264 5.11841 83.0264C5.73169 83.0264 6.21021 83.1807 6.55396 83.4893C6.89771 83.7979 7.06177 84.2432 7.04614 84.8252L7.03442 84.8604H6.17896C6.17896 84.4893 6.08911 84.2197 5.90942 84.0518C5.73364 83.8799 5.46997 83.7939 5.11841 83.7939C4.74731 83.7939 4.46216 83.9326 4.26294 84.21C4.06372 84.4834 3.96411 84.8428 3.96411 85.2881V85.9912C3.96411 86.4482 4.06372 86.8135 4.26294 87.0869C4.46216 87.3604 4.74731 87.4971 5.11841 87.4971C5.46997 87.4971 5.73364 87.4131 5.90942 87.2451C6.08521 87.0771 6.1731 86.8018 6.1731 86.4189H7.02856L7.04028 86.4541C7.05591 87.0439 6.89185 87.4932 6.5481 87.8018C6.20825 88.1064 5.73169 88.2588 5.11841 88.2588ZM13.5557 89.9111V89.1729L14.5108 89.0088V82.2881L13.5557 82.124V81.3799H14.5108H15.665H16.6201V82.124L15.665 82.2881V89.0264H18.6826L18.8174 87.6787H19.7022V89.9111H13.5557ZM22.8925 90.0342C22.2323 90.0342 21.7304 89.874 21.3866 89.5537C21.0429 89.2295 20.871 88.7744 20.871 88.1885C20.871 87.7861 20.9804 87.4365 21.1991 87.1396C21.4218 86.8389 21.7421 86.6064 22.16 86.4424C22.578 86.2744 23.078 86.1904 23.66 86.1904H24.7909V85.5693C24.7909 85.1865 24.6737 84.8896 24.4393 84.6787C24.2089 84.4678 23.8827 84.3623 23.4608 84.3623C23.1952 84.3623 22.9647 84.3955 22.7694 84.4619C22.5741 84.5244 22.3964 84.6123 22.2362 84.7256L22.1132 85.6104H21.2225V84.1572C21.5077 83.9268 21.8397 83.7529 22.2186 83.6357C22.5975 83.5146 23.0175 83.4541 23.4784 83.4541C24.2479 83.4541 24.8515 83.6377 25.289 84.0049C25.7265 84.3721 25.9452 84.8975 25.9452 85.5811V88.6338C25.9452 88.7158 25.9452 88.7959 25.9452 88.874C25.9491 88.9521 25.955 89.0303 25.9628 89.1084L26.578 89.1729V89.9111H24.9198C24.8847 89.7393 24.8573 89.585 24.8378 89.4482C24.8183 89.3115 24.8046 89.1748 24.7968 89.0381C24.5741 89.3232 24.2948 89.5615 23.9589 89.7529C23.6268 89.9404 23.2714 90.0342 22.8925 90.0342ZM23.0624 89.0674C23.4452 89.0674 23.7948 88.9756 24.1112 88.792C24.4276 88.6084 24.6542 88.3877 24.7909 88.1299V86.9814H23.619C23.0878 86.9814 22.6893 87.1084 22.4237 87.3623C22.1581 87.6162 22.0253 87.8994 22.0253 88.2119C22.0253 88.4893 22.1112 88.7021 22.2831 88.8506C22.455 88.9951 22.7147 89.0674 23.0624 89.0674ZM29.8445 89.9111L28.1746 84.3975L27.4656 84.3154V83.5713H30.0847V84.3154L29.3054 84.4443L30.1785 87.6025L30.3777 88.3525H30.4129L30.6707 87.6025L32.0476 83.5713H33.0203L34.3328 87.5908L34.614 88.4814H34.6492L34.9246 87.5908L35.8093 84.4385L35.0125 84.3154V83.5713H37.573V84.3154L36.8699 84.415L35.2293 89.9111H34.1336L32.8504 86.1025L32.5457 85.083L32.5105 85.0889L32.2117 86.1025L30.8347 89.9111H29.8445ZM45.4068 90.0342C44.5513 90.0342 43.8365 89.8467 43.2622 89.4717C42.6919 89.0967 42.2622 88.583 41.9732 87.9307C41.688 87.2783 41.5454 86.5381 41.5454 85.71V85.5869C41.5454 84.751 41.6958 84.0088 41.9966 83.3604C42.2974 82.708 42.729 82.1943 43.2915 81.8193C43.854 81.4443 44.5259 81.2568 45.3072 81.2568C45.8579 81.2568 46.3618 81.3428 46.8189 81.5146C47.2759 81.6865 47.6548 81.9053 47.9556 82.1709V84.0107H47.0357L46.9126 82.6631C46.7876 82.5654 46.6431 82.4834 46.479 82.417C46.3189 82.3506 46.1392 82.2998 45.94 82.2646C45.7447 82.2295 45.5318 82.2119 45.3013 82.2119C44.7427 82.2119 44.2701 82.3564 43.8833 82.6455C43.4966 82.9307 43.2036 83.3252 43.0044 83.8291C42.8052 84.333 42.7056 84.915 42.7056 85.5752V85.71C42.7056 86.4248 42.8111 87.0361 43.022 87.5439C43.2368 88.0479 43.5474 88.4326 43.9536 88.6982C44.3638 88.9639 44.8618 89.0967 45.4478 89.0967C45.7212 89.0967 45.9888 89.0635 46.2505 88.9971C46.5122 88.9307 46.729 88.8447 46.9009 88.7393L47.0298 87.5498H47.9322V89.4014C47.6118 89.6006 47.229 89.7568 46.7837 89.8701C46.3384 89.9795 45.8794 90.0342 45.4068 90.0342ZM52.0775 90.0342C51.4916 90.0342 50.9818 89.9014 50.5483 89.6357C50.1147 89.3662 49.7787 88.9932 49.5404 88.5166C49.3061 88.04 49.1889 87.4893 49.1889 86.8643V86.6064C49.1889 86.0049 49.3119 85.4678 49.558 84.9951C49.808 84.5186 50.1381 84.1436 50.5483 83.8701C50.9623 83.5928 51.4135 83.4541 51.9018 83.4541C52.4721 83.4541 52.9486 83.5713 53.3315 83.8057C53.7182 84.04 54.0092 84.3701 54.2045 84.7959C54.3998 85.2178 54.4975 85.7158 54.4975 86.29V87.0107H50.3842L50.3666 87.04C50.3744 87.4463 50.4447 87.8076 50.5775 88.124C50.7143 88.4365 50.9096 88.6826 51.1635 88.8623C51.4174 89.042 51.7221 89.1318 52.0775 89.1318C52.4682 89.1318 52.81 89.0771 53.1029 88.9678C53.3998 88.8545 53.6557 88.7002 53.8705 88.5049L54.3217 89.2549C54.0951 89.4736 53.7943 89.6592 53.4193 89.8115C53.0483 89.96 52.601 90.0342 52.0775 90.0342ZM50.4193 86.1084H53.3432V85.9561C53.3432 85.6514 53.2885 85.3799 53.1791 85.1416C53.0736 84.8994 52.9135 84.71 52.6986 84.5732C52.4877 84.4326 52.2221 84.3623 51.9018 84.3623C51.644 84.3623 51.4096 84.4385 51.1986 84.5908C50.9877 84.7393 50.8139 84.9424 50.6772 85.2002C50.5404 85.458 50.4506 85.751 50.4076 86.0791L50.4193 86.1084ZM55.5198 89.9111V89.1729L56.4749 89.0088V84.4795L55.5198 84.3154V83.5713H57.5061L57.5882 84.5146C57.7991 84.1787 58.0628 83.9189 58.3792 83.7354C58.6995 83.5479 59.0628 83.4541 59.469 83.4541C60.1526 83.4541 60.6819 83.6553 61.0569 84.0576C61.4319 84.4561 61.6194 85.0732 61.6194 85.9092V89.0088L62.5745 89.1729V89.9111H59.51V89.1729L60.4651 89.0088V85.9326C60.4651 85.374 60.3538 84.9775 60.1311 84.7432C59.9124 84.5088 59.5765 84.3916 59.1233 84.3916C58.7913 84.3916 58.4964 84.4717 58.2386 84.6318C57.9847 84.792 57.7815 85.0107 57.6292 85.2881V89.0088L58.5843 89.1729V89.9111H55.5198ZM65.5187 90.0107C65.05 90.0107 64.6769 89.874 64.3996 89.6006C64.1261 89.3232 63.9894 88.8818 63.9894 88.2764V84.4268H62.9875V83.5713H63.9894V82.042H65.1437V83.5713H66.5207V84.4268H65.1437V88.2764C65.1437 88.5811 65.2043 88.8057 65.3254 88.9502C65.4465 89.0947 65.6086 89.167 65.8117 89.167C65.9484 89.167 66.1008 89.1553 66.2687 89.1318C66.4367 89.1045 66.5676 89.0811 66.6613 89.0615L66.8195 89.8174C66.6515 89.8682 66.4445 89.9131 66.1984 89.9521C65.9562 89.9912 65.7297 90.0107 65.5187 90.0107ZM67.6661 89.9111V89.1729L68.6211 89.0088V84.4795L67.6661 84.3154V83.5713H69.6524L69.752 84.3799L69.7637 84.4912C69.9434 84.167 70.1641 83.9131 70.4258 83.7295C70.6915 83.5459 70.9942 83.4541 71.334 83.4541C71.4551 83.4541 71.5782 83.4658 71.7032 83.4893C71.8321 83.5088 71.9239 83.5283 71.9786 83.5479L71.8262 84.6201L71.0235 84.5732C70.7188 84.5537 70.4629 84.624 70.2559 84.7842C70.0489 84.9404 69.8887 85.1514 69.7754 85.417V89.0088L70.7305 89.1729V89.9111H67.6661ZM75.5732 90.0342C74.9872 90.0342 74.4775 89.9014 74.0439 89.6357C73.6103 89.3662 73.2743 88.9932 73.0361 88.5166C72.8017 88.04 72.6845 87.4893 72.6845 86.8643V86.6064C72.6845 86.0049 72.8075 85.4678 73.0536 84.9951C73.3036 84.5186 73.6337 84.1436 74.0439 83.8701C74.4579 83.5928 74.9091 83.4541 75.3974 83.4541C75.9677 83.4541 76.4443 83.5713 76.8271 83.8057C77.2138 84.04 77.5048 84.3701 77.7001 84.7959C77.8954 85.2178 77.9931 85.7158 77.9931 86.29V87.0107H73.8798L73.8622 87.04C73.87 87.4463 73.9404 87.8076 74.0732 88.124C74.2099 88.4365 74.4052 88.6826 74.6591 88.8623C74.913 89.042 75.2177 89.1318 75.5732 89.1318C75.9638 89.1318 76.3056 89.0771 76.5986 88.9678C76.8954 88.8545 77.1513 88.7002 77.3661 88.5049L77.8173 89.2549C77.5908 89.4736 77.29 89.6592 76.915 89.8115C76.5439 89.96 76.0966 90.0342 75.5732 90.0342ZM73.915 86.1084H76.8388V85.9561C76.8388 85.6514 76.7841 85.3799 76.6747 85.1416C76.5693 84.8994 76.4091 84.71 76.1943 84.5732C75.9833 84.4326 75.7177 84.3623 75.3974 84.3623C75.1396 84.3623 74.9052 84.4385 74.6943 84.5908C74.4833 84.7393 74.3095 84.9424 74.1728 85.2002C74.0361 85.458 73.9462 85.751 73.9033 86.0791L73.915 86.1084ZM81.617 90.0342C81.1912 90.0342 80.7928 89.9912 80.4217 89.9053C80.0506 89.8193 79.6561 89.6865 79.2381 89.5068L79.2264 88.001H80.0994L80.3162 88.9092C80.535 88.999 80.7459 89.0654 80.949 89.1084C81.1561 89.1475 81.3787 89.167 81.617 89.167C82.0858 89.167 82.4217 89.0771 82.6248 88.8975C82.8279 88.7178 82.9295 88.4951 82.9295 88.2295C82.9295 87.9795 82.826 87.7686 82.619 87.5967C82.4158 87.4209 82.0447 87.2725 81.5057 87.1514C80.7401 86.9756 80.1756 86.7412 79.8123 86.4482C79.4529 86.1514 79.2733 85.7568 79.2733 85.2646C79.2733 84.9209 79.3729 84.6143 79.5721 84.3447C79.7713 84.0713 80.0486 83.8545 80.4041 83.6943C80.7596 83.5342 81.1736 83.4541 81.6463 83.4541C82.1268 83.4541 82.5369 83.5088 82.8768 83.6182C83.2205 83.7275 83.5193 83.874 83.7733 84.0576L83.8318 85.5049H82.9647L82.7772 84.6611C82.6404 84.5596 82.4783 84.4814 82.2908 84.4268C82.1033 84.3721 81.8885 84.3447 81.6463 84.3447C81.2869 84.3447 80.994 84.4287 80.7674 84.5967C80.5447 84.7646 80.4334 84.9756 80.4334 85.2295C80.4334 85.3779 80.4647 85.5068 80.5272 85.6162C80.5936 85.7256 80.7186 85.8252 80.9022 85.915C81.0858 86.001 81.3553 86.0869 81.7108 86.1729C82.5936 86.3799 83.2088 86.6436 83.5565 86.9639C83.908 87.2842 84.0838 87.6787 84.0838 88.1475C84.0838 88.6826 83.8846 89.1318 83.4861 89.4951C83.0916 89.8545 82.4686 90.0342 81.617 90.0342ZM88.3199 89.9111V89.1729L89.275 89.0088V82.2881L88.3199 82.124V81.3799H89.275H90.441L94.6246 88.0303L94.6597 88.0186V82.2881L93.6109 82.124V81.3799H95.7203H96.6754V82.124L95.7203 82.2881V89.9111H94.6656L90.3707 83.2256L90.3355 83.2373V89.0088L91.3843 89.1729V89.9111H88.3199ZM100.604 90.0342C100.018 90.0342 99.5083 89.9014 99.0747 89.6357C98.6411 89.3662 98.3051 88.9932 98.0668 88.5166C97.8325 88.04 97.7153 87.4893 97.7153 86.8643V86.6064C97.7153 86.0049 97.8383 85.4678 98.0844 84.9951C98.3344 84.5186 98.6645 84.1436 99.0747 83.8701C99.4887 83.5928 99.9399 83.4541 100.428 83.4541C100.998 83.4541 101.475 83.5713 101.858 83.8057C102.245 84.04 102.536 84.3701 102.731 84.7959C102.926 85.2178 103.024 85.7158 103.024 86.29V87.0107H98.9106L98.893 87.04C98.9008 87.4463 98.9711 87.8076 99.104 88.124C99.2407 88.4365 99.436 88.6826 99.6899 88.8623C99.9438 89.042 100.248 89.1318 100.604 89.1318C100.995 89.1318 101.336 89.0771 101.629 88.9678C101.926 88.8545 102.182 88.7002 102.397 88.5049L102.848 89.2549C102.622 89.4736 102.321 89.6592 101.946 89.8115C101.575 89.96 101.127 90.0342 100.604 90.0342ZM98.9458 86.1084H101.87V85.9561C101.87 85.6514 101.815 85.3799 101.706 85.1416C101.6 84.8994 101.44 84.71 101.225 84.5732C101.014 84.4326 100.748 84.3623 100.428 84.3623C100.17 84.3623 99.936 84.4385 99.7251 84.5908C99.5141 84.7393 99.3403 84.9424 99.2036 85.2002C99.0668 85.458 98.977 85.751 98.934 86.0791L98.9458 86.1084ZM106.285 90.0107C105.816 90.0107 105.443 89.874 105.165 89.6006C104.892 89.3232 104.755 88.8818 104.755 88.2764V84.4268H103.753V83.5713H104.755V82.042H105.91V83.5713H107.286V84.4268H105.91V88.2764C105.91 88.5811 105.97 88.8057 106.091 88.9502C106.212 89.0947 106.374 89.167 106.577 89.167C106.714 89.167 106.867 89.1553 107.035 89.1318C107.202 89.1045 107.333 89.0811 107.427 89.0615L107.585 89.8174C107.417 89.8682 107.21 89.9131 106.964 89.9521C106.722 89.9912 106.495 90.0107 106.285 90.0107ZM110.694 89.9111L109.024 84.3975L108.315 84.3154V83.5713H110.934V84.3154L110.155 84.4443L111.028 87.6025L111.227 88.3525H111.262L111.52 87.6025L112.897 83.5713H113.869L115.182 87.5908L115.463 88.4814H115.498L115.774 87.5908L116.658 84.4385L115.862 84.3154V83.5713H118.422V84.3154L117.719 84.415L116.078 89.9111H114.983L113.699 86.1025L113.395 85.083L113.36 85.0889L113.061 86.1025L111.684 89.9111H110.694ZM121.999 90.0342C121.413 90.0342 120.907 89.8975 120.482 89.624C120.06 89.3467 119.733 88.9658 119.503 88.4814C119.273 87.9932 119.157 87.4365 119.157 86.8115V86.6826C119.157 86.0576 119.273 85.5029 119.503 85.0186C119.733 84.5303 120.06 84.1475 120.482 83.8701C120.907 83.5928 121.409 83.4541 121.987 83.4541C122.573 83.4541 123.077 83.5928 123.499 83.8701C123.925 84.1475 124.253 84.5283 124.483 85.0127C124.714 85.4971 124.829 86.0537 124.829 86.6826V86.8115C124.829 87.4404 124.714 87.999 124.483 88.4873C124.253 88.9717 123.927 89.3506 123.505 89.624C123.083 89.8975 122.581 90.0342 121.999 90.0342ZM121.999 89.1318C122.366 89.1318 122.673 89.0322 122.919 88.833C123.169 88.6299 123.357 88.3545 123.482 88.0068C123.61 87.6553 123.675 87.2568 123.675 86.8115V86.6826C123.675 86.2373 123.61 85.8408 123.482 85.4932C123.357 85.1416 123.169 84.8662 122.919 84.667C122.669 84.4639 122.358 84.3623 121.987 84.3623C121.62 84.3623 121.312 84.4639 121.062 84.667C120.812 84.8662 120.624 85.1416 120.499 85.4932C120.374 85.8408 120.312 86.2373 120.312 86.6826V86.8115C120.312 87.2568 120.374 87.6553 120.499 88.0068C120.624 88.3545 120.812 88.6299 121.062 88.833C121.316 89.0322 121.628 89.1318 121.999 89.1318ZM125.828 89.9111V89.1729L126.783 89.0088V84.4795L125.828 84.3154V83.5713H127.814L127.914 84.3799L127.926 84.4912C128.105 84.167 128.326 83.9131 128.588 83.7295C128.853 83.5459 129.156 83.4541 129.496 83.4541C129.617 83.4541 129.74 83.4658 129.865 83.4893C129.994 83.5088 130.086 83.5283 130.141 83.5479L129.988 84.6201L129.186 84.5732C128.881 84.5537 128.625 84.624 128.418 84.7842C128.211 84.9404 128.051 85.1514 127.937 85.417V89.0088L128.893 89.1729V89.9111H125.828ZM130.788 89.9111V89.1729L131.743 89.0088V81.6787L130.788 81.5146V80.7705H132.897V89.0088L133.852 89.1729V89.9111H130.788ZM134.86 89.9111V89.1729L135.505 89.0967L135.487 89.0732L133.653 86.7061L134.251 85.7861L136.811 89.0322L137.725 89.1729V89.9111H134.86ZM132.815 88.0771L132.388 87.1689L135.141 84.4268L135.171 84.3916L134.491 84.3154V83.5713H137.222V84.3154L136.407 84.4678L132.815 88.0771ZM141.756 89.9111V89.1201L144.551 86.0146C144.883 85.6436 145.143 85.3271 145.331 85.0654C145.518 84.7998 145.649 84.5596 145.723 84.3447C145.797 84.1299 145.835 83.9072 145.835 83.6768C145.835 83.251 145.706 82.8936 145.448 82.6045C145.19 82.3115 144.821 82.165 144.34 82.165C143.84 82.165 143.45 82.3154 143.169 82.6162C142.891 82.917 142.753 83.3428 142.753 83.8936H141.645L141.633 83.8584C141.622 83.3662 141.725 82.9248 141.944 82.5342C142.163 82.1396 142.479 81.8291 142.893 81.6025C143.311 81.3721 143.807 81.2568 144.381 81.2568C144.921 81.2568 145.383 81.3604 145.77 81.5674C146.161 81.7705 146.462 82.0498 146.672 82.4053C146.883 82.7607 146.989 83.1689 146.989 83.6299C146.989 83.9424 146.926 84.2529 146.801 84.5615C146.68 84.8701 146.501 85.1865 146.262 85.5107C146.028 85.835 145.745 86.1768 145.413 86.5361L143.169 88.9795L143.18 89.0088H146.21L146.303 88.0303H147.282V89.9111H141.756ZM151.369 90.0342C150.533 90.0342 149.871 89.7432 149.382 89.1611C148.894 88.5791 148.65 87.7451 148.65 86.6592V84.6377C148.65 83.5518 148.892 82.7178 149.376 82.1357C149.861 81.5498 150.521 81.2568 151.357 81.2568C152.197 81.2568 152.861 81.5498 153.349 82.1357C153.837 82.7178 154.082 83.5518 154.082 84.6377V86.6592C154.082 87.749 153.839 88.585 153.355 89.167C152.871 89.7451 152.208 90.0342 151.369 90.0342ZM151.369 89.1318C151.88 89.1318 152.267 88.9443 152.529 88.5693C152.794 88.1943 152.927 87.6357 152.927 86.8936V84.3916C152.927 83.6533 152.792 83.0986 152.523 82.7275C152.257 82.3525 151.869 82.165 151.357 82.165C150.853 82.165 150.468 82.3525 150.203 82.7275C149.937 83.0986 149.804 83.6533 149.804 84.3916V86.8936C149.804 87.6318 149.939 88.1904 150.208 88.5693C150.478 88.9443 150.865 89.1318 151.369 89.1318ZM155.473 89.9111V89.1201L158.268 86.0146C158.6 85.6436 158.86 85.3271 159.047 85.0654C159.235 84.7998 159.366 84.5596 159.44 84.3447C159.514 84.1299 159.551 83.9072 159.551 83.6768C159.551 83.251 159.422 82.8936 159.164 82.6045C158.907 82.3115 158.537 82.165 158.057 82.165C157.557 82.165 157.166 82.3154 156.885 82.6162C156.608 82.917 156.469 83.3428 156.469 83.8936H155.362L155.35 83.8584C155.338 83.3662 155.442 82.9248 155.661 82.5342C155.879 82.1396 156.196 81.8291 156.61 81.6025C157.028 81.3721 157.524 81.2568 158.098 81.2568C158.637 81.2568 159.1 81.3604 159.487 81.5674C159.877 81.7705 160.178 82.0498 160.389 82.4053C160.6 82.7607 160.705 83.1689 160.705 83.6299C160.705 83.9424 160.643 84.2529 160.518 84.5615C160.397 84.8701 160.217 85.1865 159.979 85.5107C159.745 85.835 159.461 86.1768 159.129 86.5361L156.885 88.9795L156.897 89.0088H159.926L160.02 88.0303H160.998V89.9111H155.473ZM162.366 89.9111V89.1729L163.685 89.0088V82.6162L162.343 82.6396V81.9189L164.839 81.3799V89.0088L166.152 89.1729V89.9111H162.366Z"
          fill="white"/>
    <path d="M92.4857 53.4829C91.3595 53.4829 90.3368 53.2783 89.6221 52.7056C88.7631 52.0295 88.4358 51.1102 88.4358 49.6568V45.6262H86.3279V43.3354H88.4358V40.3491L91.2994 39.9401V43.3354H94.7356V45.6262H91.2994V48.8387C91.2994 49.4306 91.2994 50.0659 91.6266 50.5159C91.913 50.884 92.363 51.0886 93.1209 51.0886C93.7755 51.0886 94.4107 50.8431 94.5118 50.8022L95.2698 52.8693C95.1254 52.9511 94.1027 53.4829 92.4881 53.4829H92.4857Z"
          fill="white"/>
    <path d="M103.122 36.2804C101.995 36.2804 100.973 36.0758 100.258 35.5031C99.399 34.8269 99.0717 33.9077 99.0717 32.4543V28.4237H96.9638V26.1329H99.0717V23.1466L101.935 22.7375V26.1329H105.371V28.4237H101.935V31.6361C101.935 32.2281 101.935 32.8634 102.263 33.3134C102.549 33.6815 102.999 33.8861 103.757 33.8861C104.411 33.8861 105.047 33.6406 105.148 33.5997L105.906 35.6667C105.761 35.7486 104.739 36.2804 103.124 36.2804H103.122Z"
          fill="white"/>
    <path d="M62.363 18.7695V4.90186H65.3901V16.214H72.3035V18.7719H62.363V18.7695Z" fill="white"/>
    <path d="M80.1508 18.7691L80.0906 17.7055C79.7417 18.0954 78.7407 19.0146 76.9191 19.0146C75.0975 19.0146 73.442 18.052 73.442 15.9056C73.442 14.984 73.7692 14.3295 74.2384 13.8602C75.2828 12.8159 76.6327 12.6113 77.9201 12.6113H79.9463V12.4068C79.9463 11.1579 79.1089 10.7488 77.9827 10.7488C76.4884 10.7488 75.3646 11.7715 75.201 11.9352L73.851 10.2772C74.0965 10.0125 75.4464 8.55908 78.1463 8.55908C79.7201 8.55908 80.8246 8.92725 81.5826 9.70449C82.6269 10.7488 82.7087 11.9953 82.7087 13.6942V18.7667H80.1508V18.7691ZM79.9463 14.4329H78.4736C77.5135 14.4329 76.1828 14.5364 76.1828 15.8045C76.1828 16.6034 76.7964 17.0125 77.6362 17.0125C78.4134 17.0125 78.9452 16.7863 79.3326 16.4398C79.7417 16.0716 79.9463 15.5398 79.9463 14.9455V14.4353V14.4329Z"
          fill="white"/>
    <path d="M96.2373 18.7701H93.4556L91.3477 12.5714L89.2421 18.7701H86.4797L83.1036 8.93066H86.0898L88.0534 15.2304L90.2215 8.93066H92.5123L94.7213 15.2304L96.7258 8.93066H99.5893L96.2349 18.7701H96.2373Z"
          fill="white"/>
    <path d="M68.7787 36.2993C63.9925 36.2993 61.4755 33.0868 61.4755 29.0587C61.4755 25.0305 64.0527 21.7771 68.8196 21.7771C72.4604 21.7771 74.0967 23.8032 74.383 24.1714L72.5615 25.9304C72.4604 25.8077 71.2115 24.3134 68.9207 24.3134C65.9946 24.3134 64.5845 26.544 64.5845 29.0177C64.5845 31.7176 66.2833 33.7438 68.9207 33.7438C71.2933 33.7438 72.6842 32.3313 72.9104 32.1075L74.6092 33.9291C74.5491 34.0109 72.6048 36.3017 68.7787 36.3017V36.2993Z"
          fill="white"/>
    <path d="M78.0574 31.901C78.0574 32.7817 78.671 34.0908 80.5744 34.0908C82.2516 34.0908 83.2117 33.109 83.4379 32.8828L84.9708 34.3554C84.0299 35.419 82.5981 36.2781 80.4709 36.2781C76.7074 36.2781 75.1313 33.7418 75.1313 31.0612C75.1313 28.3805 76.7459 25.7625 80.4084 25.7625C81.3083 25.7625 82.6583 25.9261 83.7628 27.0306C85.1127 28.3805 85.2571 30.0794 85.2571 31.8986H78.0574V31.901ZM80.3073 27.8511C78.4857 27.8511 78.0766 29.5693 78.0766 29.9783H82.4754C82.4754 29.5284 82.1698 27.8511 80.3073 27.8511Z"
          fill="white"/>
    <path d="M93.2489 35.972V30.4085C93.2489 29.6529 93.208 28.9551 92.6762 28.5677C92.4091 28.3415 92.0217 28.1995 91.449 28.1995C90.9581 28.1995 90.3661 28.3631 89.9546 28.7722C89.3627 29.3666 89.3627 30.3267 89.3627 31.3302V35.9744H86.4991V26.1349H89.199C89.199 26.1349 89.24 27.302 89.24 27.2803C89.3001 27.1985 90.407 25.7667 92.4933 25.7667C93.4967 25.7667 94.3967 26.0314 95.174 26.8111C95.9921 27.6292 96.1148 28.8155 96.1148 29.92V35.9744H93.2513L93.2489 35.972Z"
          fill="white"/>
    <path d="M113.082 28.5058C112.408 28.5058 111.568 28.6478 110.974 29.1603C110.011 30.0001 109.951 31.0012 109.951 32.0046V35.9727H107.088V26.1332H109.788L109.829 27.832C110.524 26.665 111.977 25.765 113.366 25.765C113.489 25.765 113.633 25.765 113.756 25.7843V28.5467C113.592 28.5275 113.366 28.5058 113.082 28.5058Z"
          fill="white"/>
    <path d="M117.281 31.901C117.281 32.7817 117.894 34.0908 119.795 34.0908C121.472 34.0908 122.435 33.109 122.659 32.8828L124.192 34.3554C123.251 35.419 121.819 36.2781 119.692 36.2781C115.928 36.2781 114.352 33.7418 114.352 31.0612C114.352 28.3805 115.967 25.7625 119.629 25.7625C120.529 25.7625 121.879 25.9261 122.984 27.0306C124.334 28.3805 124.476 30.0794 124.476 31.8986H117.276L117.281 31.901ZM119.531 27.8511C117.711 27.8511 117.3 29.5693 117.3 29.9783H121.699C121.699 29.5284 121.391 27.8511 119.531 27.8511Z"
          fill="white"/>
    <path d="M129.984 36.3209C127.12 36.3209 125.77 35.1129 125.38 34.7664L126.67 32.9881C126.896 33.1734 128.061 34.1744 129.984 34.1744C131.415 34.1744 131.784 33.5608 131.784 33.171C131.784 31.3711 125.626 33.1301 125.626 28.9984C125.626 27.0541 127.385 25.7667 130.003 25.7667C132.989 25.7667 134.115 27.0758 134.421 27.403L133.049 28.9575C132.886 28.7939 131.904 27.8939 130.145 27.8939C129.06 27.8939 128.448 28.2621 128.448 28.8974C128.448 30.5962 134.625 28.8155 134.625 32.9472C134.625 35.137 132.58 36.3233 129.981 36.3233L129.984 36.3209Z"
          fill="white"/>
    <path d="M71.5293 53.1746L65.2704 44.0931V53.1746H62.366V39.3069H65.4148L71.6327 48.3475V39.3069H74.5372V53.1746H71.5293Z"
          fill="white"/>
    <path d="M78.5217 49.1061C78.5217 49.9868 79.1353 51.2958 81.0387 51.2958C82.7159 51.2958 83.6784 50.314 83.9022 50.0879L85.4351 51.5605C84.4942 52.6241 83.0624 53.4832 80.9352 53.4832C77.1717 53.4832 75.5956 50.9469 75.5956 48.2663C75.5956 45.5856 77.2102 42.9675 80.8727 42.9675C81.7726 42.9675 83.1226 43.1312 84.2271 44.2357C85.577 45.5856 85.7214 47.2821 85.7214 49.1037H78.5217V49.1061ZM80.7716 45.0562C78.9524 45.0562 78.5409 46.7743 78.5409 47.1834H82.9397C82.9397 46.7334 82.6317 45.0562 80.7716 45.0562Z"
          fill="white"/>
    <path d="M108.979 53.1752H106.197L104.089 46.9765L101.984 53.1752H99.2215L95.8454 43.3357H98.8316L100.795 49.6355L102.963 43.3357H105.254L107.463 49.6355L109.468 43.3357H112.331L108.977 53.1752H108.979Z"
          fill="white"/>
    <path d="M117.733 53.4832C113.847 53.4832 112.23 50.7207 112.23 48.2254C112.23 45.73 113.844 42.9675 117.733 42.9675C121.622 42.9675 123.236 45.7492 123.236 48.2254C123.236 50.7015 121.619 53.4832 117.733 53.4832ZM117.733 45.2608C116.934 45.2608 116.301 45.5471 115.892 46.038C115.442 46.5698 115.175 47.3278 115.175 48.2061C115.175 49.0844 115.442 49.8617 115.911 50.3959C116.342 50.8868 116.934 51.1731 117.733 51.1731C118.532 51.1731 119.145 50.8868 119.574 50.3959C120.043 49.8641 120.288 49.1061 120.288 48.2061C120.288 46.5072 119.41 45.2608 117.733 45.2608Z"
          fill="white"/>
    <path d="M130.419 45.7102C129.746 45.7102 128.906 45.8522 128.314 46.3647C127.351 47.2045 127.291 48.2056 127.291 49.209V53.177H124.428V43.3376H127.128L127.168 45.0364C127.864 43.8718 129.317 42.9718 130.708 42.9718C130.831 42.9718 130.975 42.9718 131.098 42.991V45.7535C130.934 45.7343 130.708 45.7126 130.422 45.7126L130.419 45.7102Z"
          fill="white"/>
    <path d="M138.983 53.1746L135.116 48.6747V53.1746H132.252V39.3069H135.116V47.5101L138.983 43.3375H142.378L137.878 48.001L142.501 53.177H138.983V53.1746Z"
          fill="white"/>
    <path d="M13.049 23.148C11.1119 22.8496 9.36012 21.9448 7.9837 20.5684C6.25596 18.8407 5.30305 16.5426 5.30305 14.0978C5.30305 11.653 6.25596 9.35732 7.9837 7.62716C9.71144 5.89942 12.0095 4.94652 14.4519 4.94652C16.8943 4.94652 19.1924 5.89942 20.9225 7.62716C22.3976 9.10224 23.3168 11.061 23.5334 13.1449L23.5623 13.412H28.3966C28.3966 13.3614 28.3725 13.0847 28.3725 13.0847C28.1319 9.73752 26.6857 6.59245 24.3251 4.22703C21.6877 1.58969 18.1817 0.138672 14.4519 0.138672C10.7245 0.138672 7.22089 1.58969 4.58356 4.22703C-0.859558 9.67014 -0.859558 18.5254 4.58356 23.9685C6.82625 26.2112 9.80289 27.6334 12.96 27.9703L13.3209 28.0088V23.1889L13.0466 23.148H13.049Z"
          fill="white"/>
    <path d="M28.404 15.4623H23.5649V23.1914H15.3689V28.0113H28.404V15.4623Z" fill="white"/>
    <path d="M45.809 23.148C47.746 22.8496 49.4979 21.9448 50.8743 20.5684C52.602 18.8407 53.5549 16.5426 53.5549 14.0978C53.5549 11.653 52.6044 9.35732 50.8743 7.62716C49.1465 5.89942 46.8485 4.94652 44.4061 4.94652C41.9636 4.94652 39.6656 5.89942 37.9355 7.62716C36.4604 9.10224 35.5412 11.061 35.3246 13.1449L35.2957 13.412H30.4614C30.4614 13.3614 30.4855 13.0847 30.4855 13.0847C30.7261 9.73752 32.1723 6.59245 34.5329 4.22703C37.1702 1.58969 40.6763 0.138672 44.4061 0.138672C48.1335 0.138672 51.6371 1.58969 54.2744 4.22703C59.7175 9.67014 59.7175 18.5254 54.2744 23.9685C52.0317 26.2112 49.0551 27.6334 45.898 27.9703L45.537 28.0088V23.1889L45.8114 23.148H45.809Z"
          fill="white"/>
    <path d="M30.4536 15.4623H35.2927V23.1914H43.4887V28.0113H30.4536V15.4623Z" fill="white"/>
    <path d="M13.049 34.9221C11.1119 35.2205 9.36012 36.1253 7.9837 37.5017C6.25596 39.2295 5.30305 41.5275 5.30305 43.9723C5.30305 46.4172 6.25596 48.7128 7.9837 50.443C9.71144 52.1707 12.0095 53.1236 14.4519 53.1236C16.8943 53.1236 19.1924 52.1707 20.9225 50.443C22.3976 48.9679 23.3168 47.0091 23.5334 44.9253L23.5623 44.6557H28.3966C28.3966 44.7063 28.3725 44.983 28.3725 44.983C28.1319 48.3302 26.6857 51.4753 24.3251 53.8407C21.6877 56.478 18.1817 57.9291 14.4519 57.9291C10.7245 57.9291 7.22089 56.478 4.58356 53.8407C-0.859558 48.3976 -0.859558 39.5423 4.58356 34.0992C6.82625 31.8565 9.80289 30.4343 12.96 30.0975L13.3209 30.059V34.8788L13.0466 34.9197L13.049 34.9221Z"
          fill="white"/>
    <path d="M28.404 42.608H23.5649V34.8788H15.3689V30.059H28.404V42.608Z" fill="white"/>
    <path d="M45.809 34.9221C47.746 35.2205 49.4979 36.1253 50.8743 37.5017C52.602 39.2295 53.5549 41.5275 53.5549 43.9723C53.5549 46.4172 52.6044 48.7128 50.8743 50.443C49.1465 52.1707 46.8485 53.1236 44.4061 53.1236C41.9636 53.1236 39.6656 52.1707 37.9355 50.443C36.4604 48.9679 35.5412 47.0091 35.3246 44.9253L35.2957 44.6557H30.4614C30.4614 44.7063 30.4855 44.983 30.4855 44.983C30.7261 48.3302 32.1723 51.4753 34.5329 53.8407C37.1702 56.478 40.6763 57.9291 44.4061 57.9291C48.1335 57.9291 51.6371 56.478 54.2744 53.8407C59.7175 48.3976 59.7175 39.5423 54.2744 34.0992C52.0317 31.8565 49.0551 30.4343 45.898 30.0975L45.537 30.059V34.8788L45.8114 34.9197L45.809 34.9221Z"
          fill="white"/>
    <path d="M30.4536 42.608H35.2927V34.8788H43.4887V30.059H30.4536V42.608Z" fill="white"/>
</svg>
